<?xml version="1.0" standalone="no"?><!DOCTYPE svg PUBLIC "-//W3C//DTD SVG 1.1//EN" "http://www.w3.org/Graphics/SVG/1.1/DTD/svg11.dtd"><svg t="1716476929093" class="icon" viewBox="0 0 1024 1024" version="1.1" xmlns="http://www.w3.org/2000/svg" p-id="23033" xmlns:xlink="http://www.w3.org/1999/xlink" width="128" height="128"><path d="M749.445 328.014H920.95c22.98 51.125 36.736 107.098 39.055 166.182H763.201c-0.843-62.456-6.008-117.481-13.756-166.182zM674.497 92.841c98.349 38.264 179.095 110.63 229.745 201.916H743.858c-18.236-92.973-45.854-159.119-69.361-201.916zM530.821 294.757V62.798c35.418 1.528 69.73 7.168 102.566 16.339 24.877 41.901 57.028 111.842 77.32 215.62H530.821zM312.619 693.635c-7.8-48.7-13.176-103.462-13.967-166.182h198.965v166.182H312.619z m-0.317-365.621h185.314v166.182H298.441c0.843-62.509 6.061-117.481 13.861-166.182z m83.223-249.615c32.73-8.802 66.778-14.389 102.091-15.548v231.906H317.784c20.397-104.358 52.758-174.562 77.741-216.358zM119.293 294.757C170.787 201.942 254.01 129.208 354.678 91.47c-23.665 42.797-51.704 109.259-70.099 203.287H119.293z m145.943 199.439H64.268c2.214-59.031 15.496-115.162 38.423-166.182h176.301c-7.748 48.701-12.913 103.726-13.756 166.182z m14.125 199.439H103.956c-23.032-51.177-37.79-106.888-39.951-166.182h201.389c0.791 62.72 6.219 117.429 13.967 166.182z m5.482 33.205c18.5 94.976 46.961 161.438 70.731 203.708-100.984-37.632-184.26-110.63-235.806-203.708h165.075z m212.773 0v231.959c-34.891-1.107-68.57-6.641-101.037-15.232-24.983-41.058-57.555-111.526-78.163-216.727h179.2z m212.405 0c-20.503 104.568-52.759 174.825-77.741 215.936-32.467 9.013-66.515 13.862-101.459 15.39V726.84h179.2z m-179.2-199.387h198.965c-0.791 62.773-6.219 117.429-13.967 166.182H530.821V527.453z m199.123-33.257H530.821V328.014h185.314c7.8 48.701 12.965 103.673 13.809 166.182z m33.099 33.257h196.593c-2.214 59.241-16.813 115.004-39.74 166.182h-170.82c7.748-48.753 13.176-103.409 13.967-166.182zM903.979 726.84c-50.492 91.708-131.607 164.126-230.377 202.285 23.665-42.323 51.704-108.258 70.046-202.285h160.331z" fill="#2c2c2c" p-id="23034"></path></svg>