<?xml version="1.0" standalone="no"?><!DOCTYPE svg PUBLIC "-//W3C//DTD SVG 1.1//EN" "http://www.w3.org/Graphics/SVG/1.1/DTD/svg11.dtd"><svg t="1716476805185" class="icon" viewBox="0 0 1024 1024" version="1.1" xmlns="http://www.w3.org/2000/svg" p-id="16389" xmlns:xlink="http://www.w3.org/1999/xlink" width="128" height="128"><path d="M468.394667 936.448a427.818667 427.818667 0 0 1-42.368-6.485333 431.488 431.488 0 0 1-80.085334-24.832 427.008 427.008 0 0 1-72.533333-39.338667 429.738667 429.738667 0 0 1-63.146667-52.096 430.08 430.08 0 0 1-52.096-63.146667 426.922667 426.922667 0 0 1-39.338666-72.533333c-5.376-12.8-10.24-25.984-14.336-39.210667a422.058667 422.058667 0 0 1-10.496-40.874666 425.514667 425.514667 0 0 1-6.485334-42.368A431.232 431.232 0 0 1 85.333333 512h59.733334a364.458667 364.458667 0 0 0 107.605333 259.328A364.416 364.416 0 0 0 512 878.933333a367.36 367.36 0 0 0 366.933333-366.933333A367.36 367.36 0 0 0 512 145.066667a366.677333 366.677333 0 0 0-322.005333 190.933333H277.333333v59.733333H85.333333v-192h59.733334v90.410667q6.272-10.538667 13.141333-20.693333a429.696 429.696 0 0 1 52.096-63.146667 429.994667 429.994667 0 0 1 63.146667-52.096 427.093333 427.093333 0 0 1 72.533333-39.338667 414.293333 414.293333 0 0 1 80.085333-24.832 427.818667 427.818667 0 0 1 42.368-6.485333A433.493333 433.493333 0 0 1 512 85.333333a433.194667 433.194667 0 0 1 43.605333 2.218667 427.349333 427.349333 0 0 1 42.368 6.485333 431.488 431.488 0 0 1 80.085334 24.832 426.453333 426.453333 0 0 1 72.533333 39.338667 429.525333 429.525333 0 0 1 63.146667 52.096 429.909333 429.909333 0 0 1 52.096 63.146667 427.477333 427.477333 0 0 1 39.338666 72.533333c5.376 12.8 10.24 25.941333 14.336 39.210667s7.68 27.136 10.496 40.874666a425.770667 425.770667 0 0 1 6.485334 42.368A434.56 434.56 0 0 1 938.666667 512a434.56 434.56 0 0 1-2.218667 43.605333 425.514667 425.514667 0 0 1-6.485333 42.368 431.488 431.488 0 0 1-24.832 80.085334 427.136 427.136 0 0 1-39.338667 72.533333 429.952 429.952 0 0 1-52.096 63.146667 429.824 429.824 0 0 1-63.146667 52.096 426.24 426.24 0 0 1-72.533333 39.338666 418.602667 418.602667 0 0 1-80.085333 24.832 427.349333 427.349333 0 0 1-42.368 6.485334A433.194667 433.194667 0 0 1 512 938.666667a433.493333 433.493333 0 0 1-43.605333-2.218667zM482.602667 512H482.133333V211.2h59.733334v266.026667l230.656 133.162666-29.866667 51.712z" p-id="16390" fill="#1296db"></path></svg>