<?xml version="1.0" standalone="no"?><!DOCTYPE svg PUBLIC "-//W3C//DTD SVG 1.1//EN" "http://www.w3.org/Graphics/SVG/1.1/DTD/svg11.dtd"><svg t="1717936197473" class="icon" viewBox="0 0 1024 1024" version="1.1" xmlns="http://www.w3.org/2000/svg" p-id="8767" xmlns:xlink="http://www.w3.org/1999/xlink" width="128" height="128"><path d="M752.31715 358.05497 628.207365 233.95381l62.079538-62.049964c20.572419-20.544077 53.87768-20.544077 74.44517 0l49.636274 49.631345c20.572419 20.573651 20.572419 53.930667 0 74.498156L752.31715 358.05497 752.31715 358.05497zM391.769338 718.589227 267.663249 594.486835l337.391365-334.742026L729.1644 383.845969 391.769338 718.589227 391.769338 718.589227zM167.961877 820.365709l75.508602-201.6898 123.06607 123.094412L167.961877 820.365709 167.961877 820.365709zM725.300063 862.782229c17.372265 0 31.43717 14.064905 31.43717 31.43717 0 17.34762-14.064905 31.412525-31.43717 31.412525L169.424558 925.631923c-17.342691 0-31.412525-14.064905-31.412525-31.412525 0-17.372265 14.069834-31.43717 31.412525-31.43717L725.300063 862.782229 725.300063 862.782229zM725.300063 862.782229" fill="#272636" p-id="8768"></path></svg>