<?xml version="1.0" standalone="no"?><!DOCTYPE svg PUBLIC "-//W3C//DTD SVG 1.1//EN" "http://www.w3.org/Graphics/SVG/1.1/DTD/svg11.dtd"><svg t="1716476846532" class="icon" viewBox="0 0 1024 1024" version="1.1" xmlns="http://www.w3.org/2000/svg" p-id="18682" xmlns:xlink="http://www.w3.org/1999/xlink" width="128" height="128"><path d="M288 904.533333c-8.533333 0-14.933333-2.133333-23.466667-6.4-12.8-8.533333-19.2-23.466667-17.066666-38.4l36.266666-253.866666-187.733333-170.666667c-10.666667-10.666667-17.066667-25.6-10.666667-40.533333 4.266667-14.933333 17.066667-25.6 32-27.733334L369.066667 320l104.533333-232.533333c6.4-14.933333 19.2-23.466667 36.266667-23.466667 14.933333 0 29.866667 8.533333 36.266666 21.333333l121.6 226.133334L921.6 341.333333c14.933333 2.133333 27.733333 12.8 34.133333 25.6 4.266667 14.933333 2.133333 29.866667-8.533333 42.666667L768 593.066667l51.2 249.6c2.133333 14.933333-2.133333 29.866667-14.933333 40.533333s-27.733333 10.666667-42.666667 4.266667l-230.4-113.066667-221.866667 125.866667c-6.4 4.266667-12.8 4.266667-21.333333 4.266666zM128 407.466667l185.6 170.666666c10.666667 8.533333 14.933333 23.466667 12.8 36.266667l-34.133333 249.6L512 738.133333c10.666667-6.4 25.6-6.4 38.4-2.133333l228.266667 110.933333-51.2-245.333333c-2.133333-12.8 2.133333-27.733333 10.666666-36.266667l174.933334-181.333333L661.333333 354.133333c-12.8-2.133333-25.6-8.533333-32-21.333333L512 110.933333l-104.533333 228.266667c-6.4 12.8-17.066667 21.333333-29.866667 23.466667L128 407.466667z m652.8 439.466666z" fill="#1296db" p-id="18683"></path></svg>