<?xml version="1.0" standalone="no"?><!DOCTYPE svg PUBLIC "-//W3C//DTD SVG 1.1//EN" "http://www.w3.org/Graphics/SVG/1.1/DTD/svg11.dtd"><svg t="1704364394861" class="icon" viewBox="0 0 1024 1024" version="1.1" xmlns="http://www.w3.org/2000/svg" p-id="16136" xmlns:xlink="http://www.w3.org/1999/xlink" width="128" height="128"><path d="M885.333333 42.666667H181.333333a53.393333 53.393333 0 0 0-53.333333 53.333333v832a53.393333 53.393333 0 0 0 53.333333 53.333333h704a53.393333 53.393333 0 0 0 53.333334-53.333333V96a53.393333 53.393333 0 0 0-53.333334-53.333333zM298.666667 234.666667a21.333333 21.333333 0 0 1 38-13.333334l132.666666 165.853334V234.666667a21.333333 21.333333 0 0 1 42.666667 0v213.333333a21.333333 21.333333 0 0 1-38 13.333333L341.333333 295.48V448a21.333333 21.333333 0 0 1-42.666666 0z m448 576H320a21.333333 21.333333 0 0 1 0-42.666667h426.666667a21.333333 21.333333 0 0 1 0 42.666667z m0-170.666667H320a21.333333 21.333333 0 0 1 0-42.666667h426.666667a21.333333 21.333333 0 0 1 0 42.666667z m0-213.333333H618.666667a21.333333 21.333333 0 0 1 0-42.666667h128a21.333333 21.333333 0 0 1 0 42.666667z m0-170.666667H618.666667a21.333333 21.333333 0 0 1 0-42.666667h128a21.333333 21.333333 0 0 1 0 42.666667z" fill="#1296db" p-id="16137"></path></svg>