<?xml version="1.0" standalone="no"?><!DOCTYPE svg PUBLIC "-//W3C//DTD SVG 1.1//EN" "http://www.w3.org/Graphics/SVG/1.1/DTD/svg11.dtd"><svg t="1704168274982" class="icon" viewBox="0 0 1024 1024" version="1.1" xmlns="http://www.w3.org/2000/svg" p-id="4531" xmlns:xlink="http://www.w3.org/1999/xlink" width="128" height="128"><path d="M767.4 959.6H190.6c-53 0-96.1-43.1-96.1-96.1V222.8c0-53 43.1-96.1 96.1-96.1H639c17.7 0 32 14.3 32 32s-14.3 32-32 32H190.5c-17.6 0-32 14.5-32 32v640.7c0 17.7 14.5 32 32 32h576.6c17.7 0 32-14.3 32-32V350.8c0-17.7 14.3-32 32-32s32 14.3 32 32v512.6c0.4 53-42.9 96.2-95.7 96.2z" fill="#2c2c2c" p-id="4532"></path><path d="M579.1 446.9c-8.3 0-16.4-3.1-22.7-9.5-12.6-12.6-12.6-32.7 0-45.3L874.8 73.8c12.6-12.6 32.7-12.6 45.3 0s12.6 32.7 0 45.3L601.7 437.6c-6.2 6.2-14.5 9.3-22.6 9.3zM446.8 446.9H254.6c-17.7 0-32-14.3-32-32s14.3-32 32-32h192.2c17.7 0 32 14.3 32 32s-14.2 32-32 32zM639.2 639.1H254.6c-17.7 0-32-14.3-32-32s14.3-32 32-32H639c17.7 0 32 14.3 32 32 0.1 17.7-14.2 32-31.8 32z" fill="#2c2c2c" p-id="4533"></path></svg>