<?xml version="1.0" standalone="no"?><!DOCTYPE svg PUBLIC "-//W3C//DTD SVG 1.1//EN" "http://www.w3.org/Graphics/SVG/1.1/DTD/svg11.dtd"><svg t="1704111414487" class="icon" viewBox="0 0 1024 1024" version="1.1" xmlns="http://www.w3.org/2000/svg" p-id="10913" xmlns:xlink="http://www.w3.org/1999/xlink" width="128" height="128"><path d="M841.632 375.072a357.76 357.76 0 0 0-329.92-219.52c-146.912 0-275.488 89.376-329.856 219.52a178.368 178.368 0 0 1 61.792-10.976 29.76 29.76 0 0 1 29.792 29.76v297.888a29.76 29.76 0 0 1-29.76 29.76 178.72 178.72 0 0 1-141.344-288.128l0.256-1.408a417.152 417.152 0 0 1 818.432 0.64l0.128 0.8a177.952 177.952 0 0 1 37.408 109.408 178.336 178.336 0 0 1-63.36 136.512c-4.256 11.008-12.352 25.6-25.44 47.68a417.504 417.504 0 0 1-252.512 189.568l-31.584 8.64a29.952 29.952 0 0 1-5.664 1.024c-7.584 2.528-15.552 3.84-23.584 3.808h-89.344a74.464 74.464 0 0 1 0-148.928h89.344c39.04 0 71.488 30.144 74.304 69.12A358.4 358.4 0 0 0 803.2 720a182.72 182.72 0 0 1-23.36 1.504 29.76 29.76 0 0 1-29.792-29.792v-297.856a29.76 29.76 0 0 1 29.76-29.792c21.76 0 42.56 3.84 61.824 10.976z m10.176 262.656a119.2 119.2 0 0 0-42.208-210.304v230.784c15.296-3.936 29.664-10.88 42.24-20.48z m-384.736 202.944a14.88 14.88 0 1 0 0 29.792h89.344a14.88 14.88 0 1 0 0-29.76h-89.344zM124.48 542.816a119.2 119.2 0 0 0 89.344 115.392v-230.784a119.2 119.2 0 0 0-89.344 115.392z" fill="#2c2c2c" p-id="10914"></path></svg>