<?xml version="1.0" standalone="no"?><!DOCTYPE svg PUBLIC "-//W3C//DTD SVG 1.1//EN" "http://www.w3.org/Graphics/SVG/1.1/DTD/svg11.dtd"><svg t="1704263145035" class="icon" viewBox="0 0 1024 1024" version="1.1" xmlns="http://www.w3.org/2000/svg" p-id="4513" xmlns:xlink="http://www.w3.org/1999/xlink" width="128" height="128"><path d="M512.23 705.15c-105.8 0-191.88-86.08-191.88-191.88s86.08-191.88 191.88-191.88 191.88 86.08 191.88 191.88-86.07 191.88-191.88 191.88z m0-343.76c-83.75 0-151.88 68.13-151.88 151.88s68.13 151.88 151.88 151.88 151.88-68.13 151.88-151.88-68.13-151.88-151.88-151.88zM511.33 255.95c-11.05 0-20-8.95-20-20V84.46c0-11.05 8.95-20 20-20s20 8.95 20 20v151.49c0 11.05-8.95 20-20 20zM511.33 959.61c-11.05 0-20-8.95-20-20V788.12c0-11.05 8.95-20 20-20s20 8.95 20 20v151.49c0 11.05-8.95 20-20 20zM694.08 330.72c-7.81-7.81-7.81-20.47 0-28.28L801.2 195.31c7.81-7.81 20.47-7.81 28.28 0 7.81 7.81 7.81 20.47 0 28.28L722.36 330.72c-7.81 7.81-20.47 7.81-28.28 0zM196.52 828.28c-7.81-7.81-7.81-20.47 0-28.28l107.12-107.12c7.81-7.81 20.47-7.81 28.28 0 7.81 7.81 7.81 20.47 0 28.28L224.8 828.28c-7.81 7.81-20.47 7.81-28.28 0zM768.38 512.5c0-11.05 8.95-20 20-20h151.49c11.05 0 20 8.95 20 20s-8.95 20-20 20H788.38c-11.04 0-20-8.95-20-20zM64.72 512.5c0-11.05 8.95-20 20-20h151.49c11.05 0 20 8.95 20 20s-8.95 20-20 20H84.72c-11.04 0-20-8.95-20-20zM692.62 693.62c7.81-7.81 20.47-7.81 28.28 0l107.12 107.12c7.81 7.81 7.81 20.47 0 28.28-7.81 7.81-20.47 7.81-28.28 0L692.62 721.9c-7.81-7.81-7.81-20.47 0-28.28zM195.06 196.06c7.81-7.81 20.47-7.81 28.28 0l107.12 107.12c7.81 7.81 7.81 20.47 0 28.28-7.81 7.81-20.47 7.81-28.28 0L195.06 224.34c-7.81-7.81-7.81-20.47 0-28.28z" fill="#313333" p-id="4514"></path></svg>