<?xml version="1.0" standalone="no"?><!DOCTYPE svg PUBLIC "-//W3C//DTD SVG 1.1//EN" "http://www.w3.org/Graphics/SVG/1.1/DTD/svg11.dtd"><svg t="1704121016073" class="icon" viewBox="0 0 1024 1024" version="1.1" xmlns="http://www.w3.org/2000/svg" p-id="23440" xmlns:xlink="http://www.w3.org/1999/xlink" width="128" height="128"><path d="M511 825c16.332 0 29.616 12.993 29.992 29.164l0.008 0.705v81.262C541 952.627 527.569 966 511 966c-16.332 0-29.616-12.993-29.992-29.164l-0.008-0.705V854.87C481 838.373 494.431 825 511 825z m-219.733-93.267c11.478 11.479 11.642 29.987 0.491 41.666l-0.491 0.504-57.364 57.364c-11.645 11.644-30.525 11.644-42.17 0-11.478-11.479-11.642-29.987-0.491-41.666l0.491-0.504 57.364-57.364c11.645-11.644 30.525-11.644 42.17 0z m485.132-0.491l0.504 0.491 57.364 57.364c11.644 11.645 11.644 30.525 0 42.17-11.479 11.478-29.987 11.642-41.666 0.491l-0.504-0.491-57.364-57.364c-11.644-11.645-11.644-30.525 0-42.17 11.479-11.478 29.987-11.642 41.666-0.491zM511 253c143.594 0 260 116.406 260 260S654.594 773 511 773 251 656.594 251 513s116.406-260 260-260zM174.631 479.5c16.496 0 29.869 13.431 29.869 30 0 16.332-12.993 29.616-29.164 29.992l-0.705 0.008H93.37c-16.496 0-29.869-13.431-29.869-30 0-16.332 12.993-29.616 29.164-29.992l0.705-0.008h81.262z m747 0c16.496 0 29.869 13.431 29.869 30 0 16.332-12.993 29.616-29.164 29.992l-0.705 0.008H840.37c-16.496 0-29.869-13.431-29.869-30 0-16.332 12.993-29.616 29.164-29.992l0.705-0.008h81.262zM233.4 190.242l0.504 0.491 57.364 57.364c11.644 11.645 11.644 30.525 0 42.17-11.479 11.478-29.987 11.642-41.666 0.491l-0.504-0.491-57.364-57.364c-11.644-11.645-11.644-30.525 0-42.17 11.479-11.478 29.987-11.642 41.666-0.491z m595.868 0.491c11.478 11.479 11.642 29.987 0.491 41.666l-0.491 0.504-57.364 57.364c-11.645 11.644-30.525 11.644-42.17 0-11.478-11.479-11.642-29.987-0.491-41.666l0.491-0.504 57.364-57.364c11.645-11.644 30.525-11.644 42.17 0zM511 67.1c16.348 0 29.632 13.12 29.896 29.406l0.004 0.494v81.544c0 16.514-13.387 29.9-29.9 29.9-16.348 0-29.632-13.12-29.896-29.405l-0.004-0.495V97c0-16.513 13.387-29.9 29.9-29.9z" fill="#2c2c2c" p-id="23441"></path></svg>