<?xml version="1.0" standalone="no"?><!DOCTYPE svg PUBLIC "-//W3C//DTD SVG 1.1//EN" "http://www.w3.org/Graphics/SVG/1.1/DTD/svg11.dtd"><svg t="1703749592261" class="icon" viewBox="0 0 1024 1024" version="1.1" xmlns="http://www.w3.org/2000/svg" p-id="30056" xmlns:xlink="http://www.w3.org/1999/xlink" width="200" height="200"><path d="M147.565714 522.971429v92.745142H54.857143V522.971429h92.708571z m102.4 0v92.745142H157.238857V522.971429h92.708572z m659.986286-71.899429c3.693714 0 6.820571 0.329143 9.325714 0.950857l2.121143 0.658286v16.932571l-0.731428-0.329143a21.302857 21.302857 0 0 0-8.685715-1.974857c-3.931429 0-7.003429 1.28-9.142857 3.748572-1.810286 2.084571-2.870857 5.046857-3.181714 8.813714l-0.091429 2.358857v10.550857h29.604572v-18.944l19.785143-6.052571v24.996571h19.968v16.073143h-19.968v39.552c0 5.083429 0.914286 8.704 2.706285 10.788572 1.773714 2.048 4.626286 3.072 8.484572 3.072a15.250286 15.250286 0 0 0 3.949714-0.658286 15.597714 15.597714 0 0 0 2.834286-1.078857l1.170285-0.676572 0.822858-0.548571v16.237714l-0.274286 0.146286a23.369143 23.369143 0 0 1-6.162286 1.956571c-2.925714 0.621714-5.76 0.950857-8.466286 0.950857-15.542857 0-23.844571-7.954286-24.777142-23.68l-0.073143-3.035428v-43.026286h-29.604572v67.712h-19.949714v-67.712h-13.897143v-16.091428h13.897143v-11.593143c0-5.814857 1.28-11.081143 3.821714-15.652572 2.56-4.571429 6.180571-8.137143 10.788572-10.660571 4.608-2.505143 9.910857-3.785143 15.725714-3.785143z m-87.917714 39.68c13.019429 0 23.350857 3.876571 30.683428 11.52 7.350857 7.643429 11.062857 18.267429 11.062857 31.597714 0 13.494857-3.968 24.429714-11.794285 32.530286-7.808 8.082286-18.578286 12.196571-31.963429 12.196571-12.854857 0-23.241143-3.894857-30.884571-11.593142-7.625143-7.68-11.501714-18.249143-11.501715-31.36 0-13.805714 3.968-24.868571 11.794286-32.859429 7.826286-7.972571 18.797714-12.032 32.603429-12.032z m-76.562286 0c2.870857 0 6.180571 0.347429 9.819429 1.024 2.742857 0.512 5.12 1.097143 7.131428 1.792l2.157714 0.841143v18.230857l-0.822857-0.566857a32.475429 32.475429 0 0 0-8.832-4.096 34.761143 34.761143 0 0 0-10.112-1.554286c-3.584 0-6.436571 0.804571-8.484571 2.395429a7.186286 7.186286 0 0 0-3.035429 5.979428c0 2.742857 0.804571 4.918857 2.377143 6.454857 0.731429 0.676571 1.846857 1.462857 3.401143 2.304l3.657143 1.828572a96.914286 96.914286 0 0 0 2.267428 0.969143l2.523429 1.042285c7.808 3.145143 13.385143 6.710857 16.603429 10.587429 3.254857 3.894857 4.900571 8.740571 4.900571 14.390857 0 7.826286-3.053714 14.226286-9.088 19.035429-5.997714 4.754286-14.208 7.186286-24.411429 7.186285-3.291429 0-7.113143-0.438857-11.300571-1.316571a55.844571 55.844571 0 0 1-8.32-2.322286l-2.56-1.078857v-19.2l0.822857 0.585143c3.401143 2.432 7.149714 4.333714 11.172572 5.668571 4.022857 1.316571 7.698286 1.993143 10.916571 1.993143 8.667429 0 12.891429-2.742857 12.891429-8.374857a8.192 8.192 0 0 0-1.243429-4.754286 14.025143 14.025143 0 0 0-4.443429-3.638857l-1.426285-0.786285-3.766857-1.810286-4.882286-2.102857c-5.412571-2.322286-9.490286-4.608-12.141714-6.784a20.882286 20.882286 0 0 1-5.961143-7.789715 26.002286 26.002286 0 0 1-1.938286-10.386285c0-7.570286 3.035429-13.824 9.014857-18.596572 5.924571-4.754286 13.714286-7.131429 23.113143-7.131428z m-83.254857 0c13.019429 0 23.332571 3.876571 30.683428 11.52 7.332571 7.643429 11.044571 18.267429 11.044572 31.597714 0 13.494857-3.949714 24.429714-11.776 32.530286-7.826286 8.082286-18.578286 12.196571-31.981714 12.196571-12.854857 0-23.222857-3.894857-30.866286-11.593142-7.643429-7.68-11.52-18.230857-11.52-31.36 0-13.805714 3.986286-24.868571 11.794286-32.859429 7.826286-7.972571 18.797714-12.032 32.621714-12.032z m-129.700572 0c3.510857 0 7.222857 0.402286 11.008 1.188571 2.852571 0.585143 5.302857 1.316571 7.277715 2.194286l2.102857 1.042286v19.017143l-0.822857-0.585143c-5.961143-4.333714-12.288-6.528-18.761143-6.528-7.570286 0-13.787429 2.56-18.468572 7.625143-4.717714 5.083429-7.113143 11.958857-7.113142 20.443428 0 8.448 2.285714 15.158857 6.802285 19.931429 4.516571 4.772571 10.715429 7.204571 18.468572 7.204571 2.779429 0 5.942857-0.621714 9.435428-1.828571 2.322286-0.822857 4.534857-1.828571 6.619429-3.053714l3.017143-1.974858 0.822857-0.603428v18.048l-0.256 0.146286c-6.4 3.693714-14.409143 5.577143-23.771429 5.577142a43.885714 43.885714 0 0 1-21.540571-5.248 37.083429 37.083429 0 0 1-14.756572-14.902857 44.434286 44.434286 0 0 1-5.284571-21.577143c0-9.051429 1.828571-17.152 5.430857-24.100571 3.620571-6.948571 8.941714-12.434286 15.817143-16.256 6.857143-3.821714 14.921143-5.76 23.954286-5.76z m75.977143 0.566857c2.468571 0 4.534857 0.219429 6.217143 0.658286l1.828572 0.658286v19.876571l-0.841143-0.603429a15.012571 15.012571 0 0 0-4.589715-1.865142 23.149714 23.149714 0 0 0-5.924571-0.877715 15.067429 15.067429 0 0 0-12.745143 6.747429c-2.797714 3.876571-4.406857 8.832-4.809143 14.756571l-0.109714 3.035429v42.861714h-19.712V492.8h19.712v14.500571h0.201143c1.846857-4.699429 4.260571-8.484571 7.588571-11.227428 3.803429-3.145143 8.228571-4.736 13.184-4.736z m-134.765714 1.462857v83.785143h-19.712V492.8h19.712z m-136.283429-33.133714l34.340572 86.857143 35.382857-86.857143h27.830857v116.918857h-20.114286v-89.965714h-0.64l-35.693714 89.965714h-14.262857l-36.278857-89.965714h-0.64v89.965714h-18.907429v-116.918857h28.982857z m483.547429 47.433143c-7.131429 0-12.8 2.432-16.822857 7.241143-4.041143 4.845714-6.089143 11.794286-6.089143 20.662857 0 8.630857 2.048 15.396571 6.089143 20.150857 4.022857 4.754286 9.746286 7.131429 16.987428 7.131429 7.277714 0 12.854857-2.340571 16.566858-6.985143 3.730286-4.681143 5.613714-11.666286 5.613714-20.772572 0-8.978286-2.011429-15.890286-5.979429-20.498285-3.931429-4.608-9.453714-6.948571-16.365714-6.948572z m-159.817143 0c-7.131429 0-12.8 2.432-16.822857 7.241143-4.041143 4.845714-6.107429 11.794286-6.107429 20.662857 0 8.630857 2.048 15.396571 6.107429 20.150857 4.022857 4.754286 9.728 7.131429 16.969143 7.131429 7.296 0 12.854857-2.340571 16.566857-6.985143 3.730286-4.681143 5.632-11.666286 5.632-20.772572 0-8.978286-2.011429-15.890286-5.979429-20.498285-3.949714-4.608-9.453714-6.948571-16.384-6.948572zM147.565714 420.571429v92.726857H54.857143V420.571429h92.726857z m102.381715 0v92.726857H157.238857V420.571429h92.708572z m214.107428 36.498285c3.419429 0 6.290286 1.152 8.576 3.382857a11.062857 11.062857 0 0 1 3.419429 8.137143 10.514286 10.514286 0 0 1-3.529143 8.045715 12.16 12.16 0 0 1-8.466286 3.218285 11.995429 11.995429 0 0 1-8.429714-3.2 10.569143 10.569143 0 0 1-3.474286-8.064c0-3.254857 1.170286-6.034286 3.510857-8.228571a11.885714 11.885714 0 0 1 8.393143-3.291429z" p-id="30057"></path></svg>