<?xml version="1.0" standalone="no"?><!DOCTYPE svg PUBLIC "-//W3C//DTD SVG 1.1//EN" "http://www.w3.org/Graphics/SVG/1.1/DTD/svg11.dtd"><svg t="1704171053807" class="icon" viewBox="0 0 1024 1024" version="1.1" xmlns="http://www.w3.org/2000/svg" p-id="6130" xmlns:xlink="http://www.w3.org/1999/xlink" width="128" height="128"><path d="M212 338c-24.852 0-45-20.148-45-45S187.148 248 212 248h600c24.852 0 45 20.148 45 45S836.852 338 812 338H212z m0 220c-24.852 0-45-20.148-45-45S187.148 468 212 468h600c24.852 0 45 20.148 45 45S836.852 558 812 558H212z m0 220c-24.852 0-45-20.148-45-45S187.148 688 212 688h600c24.852 0 45 20.148 45 45S836.852 778 812 778H212z" fill="#2c2c2c" p-id="6131"></path></svg>