<?xml version="1.0" standalone="no"?><!DOCTYPE svg PUBLIC "-//W3C//DTD SVG 1.1//EN" "http://www.w3.org/Graphics/SVG/1.1/DTD/svg11.dtd"><svg t="1703749602552" class="icon" viewBox="0 0 4796 1024" version="1.1" xmlns="http://www.w3.org/2000/svg" p-id="30210" xmlns:xlink="http://www.w3.org/1999/xlink" width="936.71875" height="200"><path d="M4796.465276 463.237101v-84.353157h-104.750103V247.7468l-3.526315 1.085734-98.388817 30.103591-1.939473 0.589265v99.363194h-155.292399v-55.35386c0-25.774576 5.76274-45.498738 17.121185-58.652819 11.279567-12.996325 27.412456-19.603525 47.990358-19.603525 14.791962 0 30.108231 3.484556 45.521937 10.356229l3.865027 1.726038V168.525359l-1.818836-0.668144c-14.379012-5.168835-33.936138-7.771812-58.179551-7.771812-30.55366 0-58.314108 6.648959-82.525042 19.82624-24.224853 13.19584-43.280872 32.033784-56.629828 55.984884-13.302558 23.923261-20.053594 51.553791-20.053594 82.130651v60.856766h-72.939034v84.353157h72.939034v355.364353h104.708344V463.237101h155.292399v225.827971c0 93.006547 43.870138 140.138526 130.390122 140.138526 14.216616 0 29.180253-1.66572 44.459403-4.927561 15.552903-3.349999 26.145767-6.695358 32.381776-10.268071l1.378046-0.81662v-85.132659l-4.259416 2.816412c-5.683862 3.786148-12.759691 6.880953-21.05581 9.182338-8.333238 2.343143-15.29307 3.517035-20.684619 3.517035-20.267029 0-35.263146-5.461148-44.566121-16.239607-9.409692-10.875897-14.184136-29.894796-14.184137-56.499912V463.237101h104.745464zM4021.089014 743.588391c-38.00532 0-67.969714-12.601935-89.085842-37.425333-21.246045-24.948676-32.010585-60.518054-32.010585-105.71056 0-46.626231 10.764539-83.118947 32.019865-108.508412 21.130048-25.222429 50.80677-38.023879 88.222823-38.023879 36.307121 0 65.208981 12.226104 85.912159 36.358159 20.805256 24.257333 31.36564 60.457736 31.365641 107.626833 0 47.749084-9.92936 84.427395-29.509686 108.963122-19.445769 24.35013-48.686341 36.720071-86.914375 36.72007m4.653808-375.297311c-72.507524 0-130.097809 21.246045-171.160815 63.148871-41.035166 41.907465-61.840422 99.901421-61.840422 172.385745 0 68.846653 20.308788 124.223711 60.369577 164.567534 40.06079 40.357743 94.579469 60.801087 162.029516 60.801088 70.285018 0 126.729251-21.542998 167.773697-64.025809 41.039806-42.436412 61.831143-99.882861 61.831143-170.673627 0-69.923107-19.510727-125.713115-58.007876-165.787825-38.515707-40.093269-92.691035-60.415977-160.99482-60.415977m-401.823549 0c-49.322005 0-90.120537 12.615854-121.286662 37.490292-31.356361 25.022914-47.261895 57.840839-47.261896 97.553638 0 20.64286 3.433517 38.979696 10.189193 54.532599 6.797435 15.603942 17.316061 29.342649 31.291403 40.87277 13.868624 11.437323 35.277066 23.417513 63.645338 35.606498 23.849022 9.813362 41.633712 18.114121 52.931838 24.656363 11.042933 6.412325 18.879703 12.857129 23.306156 19.134896 4.301176 6.143211 6.481923 14.550688 6.481923 24.925477 0 29.542165-22.122984 43.916536-67.644922 43.916536-16.884551 0-36.144725-3.526315-57.242294-10.476866a215.044872 215.044872 0 0 1-58.62034-29.72312l-4.347575-3.118005v100.810839l1.596122 0.742382c14.815161 6.839194 33.495349 12.606575 55.511615 17.144384 21.974508 4.54245 41.939944 6.853114 59.283845 6.853115 53.521104 0 96.62102-12.676173 128.070178-37.699087 31.648674-25.19459 47.688765-58.787376 47.688765-99.873582 0-29.639602-8.634831-55.056907-25.653939-75.55593-16.903111-20.331988-46.24112-38.998256-87.160289-55.497696-32.59985-13.084483-53.483985-23.94646-62.100256-32.284338-8.305399-8.054845-12.523057-19.445769-12.523057-33.87118 0-12.78753 5.205954-23.032402 15.891616-31.328521 10.769179-8.337878 25.760656-12.578735 44.56148-12.578735 17.445977 0 35.295625 2.756093 53.047836 8.156922 17.73829 5.400829 33.319033 12.634414 46.324638 21.48268l4.277976 2.923129v-95.628084l-1.64252-0.705263c-11.998749-5.145635-27.820766-9.548889-47.039181-13.121602-19.130257-3.549514-36.483436-5.340511-51.576991-5.340511m-441.517787 375.297311c-37.99604 0-67.969714-12.601935-89.081202-37.425333-21.250685-24.948676-31.996665-60.508775-31.996665-105.71056 0-46.626231 10.759899-83.118947 32.019864-108.508412 21.111489-25.222429 50.78357-38.023879 88.218184-38.023879 36.293201 0 65.195061 12.226104 85.902879 36.358159 20.809896 24.257333 31.36564 60.457736 31.36564 107.626833 0 47.749084-9.933999 84.427395-29.514325 108.963122-19.445769 24.35013-48.672421 36.720071-86.914375 36.72007m4.667727-375.297311c-72.526084 0-130.121009 21.246045-171.160815 63.148871-41.035166 41.907465-61.854342 99.901421-61.854341 172.385745 0 68.874492 20.322708 124.223711 60.383497 164.567534 40.06079 40.357743 94.57483 60.801087 162.024876 60.801088 70.275738 0 126.733891-21.542998 167.778337-64.025809 41.030526-42.436412 61.831143-99.882861 61.831142-170.673627 0-69.923107-19.515367-125.713115-58.021795-165.787825-38.524987-40.093269-92.691035-60.415977-160.980901-60.415977M2795.110066 455.03378V378.883944h-103.432375v439.708231h103.432375v-224.927833c0-38.246594 8.67195-69.667913 25.783855-93.400938 16.893831-23.449992 39.406566-35.332744 66.89326-35.332744 9.316894 0 19.775201 1.535803 31.101167 4.574929 11.209969 3.020567 19.329772 6.300967 24.118136 9.753044l4.347575 3.150484V378.132282l-1.675-0.719182c-9.632407-4.092381-23.259757-6.157131-40.501579-6.157131-25.99265 0-49.252407 8.351798-69.176084 24.795559-17.487736 14.45325-30.12679 34.27021-39.791677 58.982252h-1.099653z m-288.661329-86.7427c-47.452131 0-89.777186 10.175274-125.778074 30.233508-36.075126 20.104633-63.974771 48.806978-82.956551 85.304334-18.898262 36.409198-28.49355 78.938408-28.49355 126.36734 0 41.545554 9.302975 79.67151 27.69085 113.273576 18.397154 33.657745 44.436204 59.989107 77.397965 78.251705 32.915363 18.239398 70.957801 27.486694 113.078702 27.486695 49.15497 0 91.122753-9.827282 124.771218-29.208093l1.359487-0.779501v-94.760425l-4.347575 3.173683c-15.242031 11.103251-32.275058 19.965436-50.602614 26.349922-18.281157 6.379845-34.947634 9.604567-49.56328 9.604567-40.585097 0-73.166388-12.699372-96.815895-37.736206-23.700546-25.069313-35.717855-60.27214-35.717855-104.569147 0-44.5754 12.532336-80.683006 37.230458-107.325241 24.623884-26.563357 57.265493-40.03759 97.010771-40.03759 33.996457 0 67.125254 11.511561 98.467695 34.24701l4.338295 3.150484V391.471959l-1.401246-0.788781c-11.794594-6.60256-27.881085-12.054428-47.851161-16.188568-19.886558-4.12486-39.336967-6.20353-57.81764-6.20353m-308.464369 10.597504h-103.432375v439.703591h103.432375V378.888584z m-50.658294-187.316904c-17.023748 0-31.871388 5.79522-44.069652 17.278942-12.249303 11.516201-18.462113 26.01585-18.462113 43.127755 0 16.842792 6.138571 31.077967 18.271877 42.287936 12.054428 11.177489 26.948467 16.842792 44.264528 16.842792 17.311421 0 32.261139-5.665303 44.459404-16.824232 12.277143-11.228528 18.503872-25.459063 18.503871-42.306496 0-16.51336-6.059693-30.864532-17.998124-42.663766-11.929151-11.776035-27.064465-17.74293-44.969791-17.742931m-258.070549 154.874809v472.145686h105.557443V205.031994H1848.716826l-185.697582 455.734403-180.208596-455.734403H1330.766171v613.555541h99.196157V346.400091h3.405678l190.295711 472.192084h74.859947l187.326183-472.145686h3.405678z" fill="#706D6E" p-id="30211"></path><path d="M486.575736 486.575736H0V0h486.575736v486.575736z" fill="#F1511B" p-id="30212"></path><path d="M1023.809765 486.575736H537.243309V0h486.566456v486.575736z" fill="#80CC28" p-id="30213"></path><path d="M486.561816 1024H0V537.428904h486.561816v486.571096z" fill="#00ADEF" p-id="30214"></path><path d="M1023.809765 1024H537.243309V537.428904h486.566456v486.571096z" fill="#FBBC09" p-id="30215"></path></svg>