<svg width="133" height="20" viewBox="0 0 133 20" xmlns="http://www.w3.org/2000/svg" class="inline-DS-EntryPoint1-1" style="fill: rgb(255, 255, 255);"><path d="M38.9861 4V16H36.9027V6.59445H36.8694L33.1444 16H31.7639L27.9472 6.59445H27.9222V16H25.9972V4H28.9861L32.4333 12.8944H32.4833L36.125 4H38.9861ZM40.7305 4.91112C40.7305 4.575 40.8527 4.29723 41.0944 4.06945C41.3361 3.84445 41.625 3.73056 41.9611 3.73056C42.3194 3.73056 42.6139 3.84723 42.8472 4.07778C43.0805 4.30834 43.1972 4.58612 43.1972 4.91112C43.1972 5.24167 43.0777 5.51667 42.8389 5.73889C42.5972 5.96112 42.3055 6.075 41.9583 6.075C41.6111 6.075 41.3222 5.96112 41.0833 5.73612C40.8472 5.51112 40.7305 5.23611 40.7305 4.91112ZM42.9639 16H40.9389V7.39722H42.9639V16ZM49.1055 14.5278C49.4055 14.5278 49.7388 14.4583 50.1027 14.3194C50.4666 14.1806 50.8 13.9972 51.1083 13.7667V15.65C50.7833 15.8333 50.4166 15.975 50.0083 16.0694C49.5972 16.1639 49.1472 16.2111 48.6555 16.2111C47.3889 16.2111 46.3583 15.8111 45.5666 15.0111C44.775 14.2111 44.3777 13.1889 44.3777 11.9444C44.3777 10.5611 44.7833 9.42223 45.5916 8.525C46.4 7.63056 47.5472 7.18056 49.0305 7.18056C49.4111 7.18056 49.7944 7.23056 50.1805 7.32778C50.5694 7.425 50.8777 7.53889 51.1055 7.66667V9.60834C50.7916 9.38056 50.475 9.20278 50.1472 9.07778C49.8194 8.95278 49.4861 8.88889 49.1472 8.88889C48.35 8.88889 47.7055 9.14723 47.2139 9.66667C46.7222 10.1861 46.4777 10.8861 46.4777 11.7667C46.4777 12.6361 46.7139 13.3139 47.1861 13.8C47.6555 14.2833 48.2972 14.5278 49.1055 14.5278ZM56.8722 7.25556C57.0333 7.25556 57.1805 7.26667 57.3083 7.28889C57.4361 7.31111 57.5472 7.33889 57.6361 7.37223V9.42222C57.5305 9.34445 57.375 9.26945 57.1722 9.2C56.9694 9.13056 56.7222 9.09445 56.4305 9.09445C55.9333 9.09445 55.5138 9.30278 55.1722 9.72223C54.8277 10.1417 54.6583 10.7861 54.6583 11.6556V16H52.6333V7.39722H54.6583V8.75278H54.6916C54.875 8.28334 55.1555 7.91667 55.5277 7.65278C55.8972 7.38612 56.3472 7.25556 56.8722 7.25556ZM57.7416 11.825C57.7416 10.4028 58.1416 9.275 58.9472 8.44445C59.75 7.61389 60.8666 7.19723 62.2944 7.19723C63.6388 7.19723 64.6888 7.59723 65.4444 8.39723C66.2 9.19723 66.5777 10.2778 66.5777 11.6417C66.5777 13.0361 66.175 14.1472 65.3722 14.9722C64.5694 15.7972 63.475 16.2111 62.0916 16.2111C60.7583 16.2111 59.7 15.8194 58.9166 15.0361C58.1333 14.25 57.7416 13.1806 57.7416 11.825ZM59.8527 11.7556C59.8527 12.6556 60.0555 13.3417 60.4639 13.8139C60.8722 14.2889 61.4527 14.525 62.2138 14.525C62.95 14.525 63.5111 14.2889 63.8944 13.8139C64.2805 13.3389 64.4722 12.6361 64.4722 11.7056C64.4722 10.7806 64.2722 10.0806 63.875 9.60834C63.4777 9.13611 62.9166 8.9 62.1972 8.9C61.4555 8.9 60.8805 9.14723 60.4694 9.64167C60.0555 10.1361 59.8527 10.8417 59.8527 11.7556ZM69.5916 9.65556C69.5916 9.94723 69.6833 10.1722 69.8666 10.3389C70.0499 10.5028 70.4583 10.7111 71.0888 10.9611C71.8972 11.2861 72.4666 11.65 72.7916 12.0528C73.1194 12.4583 73.2805 12.9472 73.2805 13.5222C73.2805 14.3306 72.9694 14.9806 72.3472 15.4722C71.725 15.9639 70.8833 16.2083 69.825 16.2083C69.4666 16.2083 69.0722 16.1667 68.6416 16.0778C68.2083 15.9917 67.8416 15.8806 67.5416 15.7472V13.7556C67.9083 14.0111 68.3055 14.2167 68.7305 14.3667C69.1555 14.5167 69.5388 14.5917 69.8861 14.5917C70.3444 14.5917 70.6805 14.5278 70.8972 14.4C71.1138 14.2722 71.225 14.0556 71.225 13.7556C71.225 13.4778 71.1111 13.2417 70.8861 13.0472C70.6611 12.8556 70.2333 12.6333 69.6027 12.3806C68.8555 12.0667 68.325 11.7167 68.0138 11.325C67.7027 10.9333 67.5444 10.4389 67.5444 9.83612C67.5444 9.06112 67.8527 8.42222 68.4694 7.925C69.0861 7.425 69.8861 7.175 70.8666 7.175C71.1666 7.175 71.5055 7.20834 71.8805 7.275C72.2527 7.34167 72.5666 7.42778 72.8166 7.53334V9.45834C72.55 9.28056 72.2361 9.125 71.8805 8.99723C71.5222 8.86945 71.1694 8.80556 70.8166 8.80556C70.4305 8.80556 70.1333 8.88056 69.9166 9.03056C69.7 9.18889 69.5916 9.39445 69.5916 9.65556ZM74.1527 11.825C74.1527 10.4028 74.5555 9.275 75.3583 8.44445C76.1611 7.61389 77.2777 7.19723 78.7055 7.19723C80.0499 7.19723 81.0999 7.59723 81.8555 8.39723C82.6111 9.19723 82.9888 10.2778 82.9888 11.6417C82.9888 13.0361 82.5861 14.1472 81.7833 14.9722C80.9805 15.7972 79.8861 16.2111 78.5027 16.2111C77.1694 16.2111 76.1111 15.8194 75.3277 15.0361C74.5444 14.25 74.1527 13.1806 74.1527 11.825ZM76.2611 11.7556C76.2611 12.6556 76.4638 13.3417 76.8722 13.8139C77.2805 14.2889 77.8611 14.525 78.6222 14.525C79.3583 14.525 79.9194 14.2889 80.3055 13.8139C80.6916 13.3389 80.8833 12.6361 80.8833 11.7056C80.8833 10.7806 80.6833 10.0806 80.2861 9.60834C79.8861 9.13611 79.3277 8.9 78.6083 8.9C77.8666 8.9 77.2888 9.14723 76.8805 9.64167C76.4666 10.1361 76.2611 10.8417 76.2611 11.7556ZM89.7083 9.05278H86.6916V16H84.6416V9.05278H83.2027V7.39722H84.6416V6.2C84.6416 5.29723 84.9361 4.55556 85.525 3.97778C86.1138 3.4 86.8666 3.11111 87.7888 3.11111C88.0333 3.11111 88.2527 3.125 88.4416 3.15C88.6305 3.175 88.7999 3.21389 88.9444 3.26389V5.01389C88.8777 4.975 88.7611 4.92778 88.5916 4.87223C88.4249 4.81667 88.2333 4.78889 88.0138 4.78889C87.5888 4.78889 87.2638 4.92223 87.0333 5.18611C86.8055 5.45 86.6916 5.84445 86.6916 6.36112V7.4H89.7083V5.46667L91.7416 4.84723V7.4H93.7916V9.05556H91.7416V13.0806C91.7416 13.6111 91.8388 13.9833 92.0305 14.2028C92.2222 14.4194 92.5249 14.5306 92.9388 14.5306C93.0555 14.5306 93.1972 14.5028 93.3611 14.4472C93.5249 14.3917 93.6694 14.325 93.7916 14.2472V15.9222C93.6638 15.9944 93.4499 16.0611 93.1499 16.1222C92.8527 16.1833 92.5583 16.2139 92.2666 16.2139C91.4138 16.2139 90.7722 15.9861 90.3472 15.5333C89.9194 15.0778 89.7055 14.3944 89.7055 13.4778V9.05278H89.7083Z"></path><path d="M9.50556 0H0V9.50556H9.50556V0Z" fill="#F25022"></path><path d="M19.9999 0H10.4944V9.50556H19.9999V0Z" fill="#7FBA00"></path><path d="M9.50556 10.4944H0V20H9.50556V10.4944Z" fill="#00A4EF"></path><path d="M19.9999 10.4944H10.4944V20H19.9999V10.4944Z" fill="#FFB900"></path><path d="M100.744 7.03612C100.744 7.47778 100.897 7.85 101.205 8.15278C101.511 8.45834 102.061 8.81389 102.855 9.21945C103.922 9.77223 104.686 10.325 105.147 10.8806C105.611 11.4361 105.842 12.075 105.842 12.8C105.842 13.8667 105.455 14.7 104.686 15.3028C103.917 15.9056 102.93 16.2056 101.733 16.2056C101.047 16.2056 100.419 16.1361 99.8499 15.9972C99.2805 15.8583 98.8499 15.6972 98.561 15.5111V13.2278C98.9305 13.5695 99.4027 13.85 99.9805 14.0722C100.558 14.2944 101.125 14.4083 101.683 14.4083C102.292 14.4083 102.775 14.2917 103.13 14.0556C103.489 13.8222 103.667 13.4694 103.667 13C103.667 12.5861 103.494 12.2111 103.153 11.875C102.811 11.5389 102.178 11.1278 101.258 10.65C100.355 10.1806 99.6805 9.67223 99.236 9.12223C98.7916 8.57223 98.5694 7.925 98.5694 7.17778C98.5694 6.19167 98.9555 5.38056 99.7249 4.74723C100.494 4.11389 101.48 3.79723 102.678 3.79723C103.208 3.79723 103.722 3.84723 104.222 3.94445C104.722 4.04167 105.089 4.14723 105.322 4.25834V6.44167C104.992 6.18056 104.594 5.97223 104.13 5.82223C103.664 5.67223 103.192 5.59723 102.711 5.59723C102.125 5.59723 101.65 5.72778 101.289 5.99167C100.925 6.25278 100.744 6.60278 100.744 7.03612Z"></path><path d="M110.828 14.5278C110.944 14.5278 111.086 14.5 111.25 14.4445C111.414 14.3889 111.558 14.3222 111.68 14.2445V15.9195C111.553 15.9917 111.339 16.0583 111.042 16.1195C110.744 16.1806 110.45 16.2111 110.158 16.2111C109.305 16.2111 108.664 15.9833 108.239 15.5278C107.811 15.0722 107.6 14.3889 107.6 13.4722V9.05279H106.186V7.39445H107.6V5.46112L109.633 4.84167V7.39445H111.683V9.05279H109.633V13.0778C109.633 13.6083 109.73 13.9806 109.922 14.2C110.111 14.4195 110.414 14.5278 110.828 14.5278Z"></path><path d="M119.794 10.6111C119.794 12.0278 119.794 13.1444 119.8 13.9639C119.803 14.7806 119.847 15.4611 119.93 16.0028H117.914L117.814 15.0833H117.778C117.522 15.4306 117.186 15.6917 116.769 15.875C116.353 16.0556 115.83 16.1472 115.2 16.1472C114.442 16.1472 113.805 15.9167 113.297 15.4556C112.786 14.9944 112.53 14.375 112.53 13.5944C112.53 12.7583 112.858 12.0861 113.514 11.5806C114.169 11.075 115.197 10.7361 116.597 10.5639L117.828 10.4139C117.828 9.84445 117.694 9.44167 117.425 9.2C117.158 8.96111 116.755 8.83611 116.219 8.83056C115.639 8.83056 115.089 8.91945 114.569 9.09445C114.05 9.26945 113.653 9.47778 113.372 9.71667V7.86667C113.65 7.71667 114.083 7.56389 114.669 7.41111C115.255 7.25834 115.872 7.18056 116.519 7.18056C117.592 7.18056 118.403 7.475 118.958 8.06667C119.517 8.65834 119.794 9.50556 119.794 10.6111ZM116.922 11.8917C116.03 11.9972 115.4 12.1694 115.036 12.4111C114.669 12.65 114.489 12.9806 114.489 13.3972C114.489 13.7556 114.597 14.0389 114.811 14.25C115.025 14.4611 115.35 14.5667 115.786 14.5667C116.417 14.5667 116.917 14.3722 117.283 13.9861C117.653 13.5972 117.839 13.1111 117.844 12.525V11.7806L116.922 11.8917Z"></path><path d="M125.833 7.25556C125.994 7.25556 126.139 7.26667 126.269 7.28889C126.397 7.31112 126.505 7.33889 126.597 7.37223V9.42223C126.492 9.34445 126.336 9.26945 126.133 9.20001C125.93 9.13056 125.683 9.09445 125.392 9.09445C124.894 9.09445 124.475 9.30278 124.133 9.72223C123.792 10.1417 123.619 10.7861 123.619 11.6556V16H121.594V7.39723H123.619V8.75278H123.653C123.836 8.28334 124.117 7.91667 124.489 7.65278C124.861 7.38612 125.308 7.25556 125.833 7.25556Z"></path><path d="M131.9 14.5278C132.017 14.5278 132.158 14.5 132.322 14.4445C132.486 14.3889 132.63 14.3222 132.753 14.2445V15.9195C132.625 15.9917 132.411 16.0583 132.114 16.1195C131.816 16.1806 131.522 16.2111 131.23 16.2111C130.378 16.2111 129.736 15.9833 129.311 15.5278C128.883 15.0722 128.672 14.3889 128.672 13.4722V9.05279H127.258V7.39445H128.672V5.46112L130.705 4.84167V7.39445H132.755V9.05279H130.705V13.0778C130.705 13.6083 130.803 13.9806 130.994 14.2C131.183 14.4195 131.486 14.5278 131.9 14.5278Z"></path></svg>