<?xml version="1.0" standalone="no"?><!DOCTYPE svg PUBLIC "-//W3C//DTD SVG 1.1//EN" "http://www.w3.org/Graphics/SVG/1.1/DTD/svg11.dtd"><svg t="1703749690905" class="icon" viewBox="0 0 3072 1024" version="1.1" xmlns="http://www.w3.org/2000/svg" p-id="37465" xmlns:xlink="http://www.w3.org/1999/xlink" width="600" height="200"><path d="M733.184 300.032h168.96v168.96H733.184V300.032z" fill="#F25022" p-id="37466"></path><path d="M919.552 300.032h168.96v168.96H919.552V300.032z" fill="#80BA01" p-id="37467"></path><path d="M2259.968 364.544c15.36-10.24 35.84-11.264 53.248-6.144v31.744c-8.192-4.096-18.432-6.144-26.624-2.048-7.168 3.072-11.264 10.24-12.288 17.408-1.024 9.216 0 18.432-1.024 27.648h53.248v-34.816c12.288-3.072 24.576-7.168 35.84-11.264v46.08h35.84V460.8h-36.864v51.2c0 9.216 0 19.456 1.024 28.672 1.024 5.12 3.072 11.264 8.192 14.336 9.216 5.12 19.456 3.072 27.648-3.072v29.696c-10.24 4.096-22.528 6.144-33.792 5.12-10.24-1.024-21.504-5.12-28.672-13.312-8.192-9.216-10.24-22.528-10.24-34.816v-78.848h-53.248V583.68h-36.864V459.776h-25.6V430.08h25.6c1.024-13.312-1.024-26.624 2.048-38.912 5.12-10.24 12.288-20.48 22.528-26.624zM1475.584 366.592c7.168-1.024 15.36 1.024 20.48 7.168 6.144 6.144 7.168 16.384 2.048 23.552-5.12 8.192-15.36 12.288-24.576 10.24-9.216-2.048-17.408-10.24-17.408-20.48 1.024-10.24 9.216-19.456 19.456-20.48zM1195.008 370.688h53.248c16.384 41.984 33.792 83.968 50.176 125.952 4.096 10.24 8.192 21.504 12.288 31.744 21.504-52.224 43.008-105.472 64.512-157.696h51.2v214.016h-36.864V427.008 419.84c-1.024 1.024-1.024 2.048-2.048 3.072-21.504 54.272-43.008 107.52-63.488 160.768h-26.624c-21.504-54.272-43.008-107.52-65.536-161.792-1.024-1.024-1.024-2.048-2.048-3.072v163.84h-34.816V370.688zM1576.96 431.104c17.408-5.12 36.864-5.12 54.272 0 4.096 1.024 7.168 2.048 10.24 4.096v34.816c-12.288-9.216-26.624-14.336-41.984-13.312-12.288 1.024-23.552 7.168-30.72 17.408-9.216 12.288-11.264 27.648-9.216 41.984 1.024 11.264 6.144 22.528 14.336 30.72 9.216 8.192 22.528 11.264 33.792 10.24 12.288-1.024 23.552-6.144 32.768-13.312v32.768c-15.36 9.216-32.768 11.264-50.176 10.24-17.408-1.024-34.816-7.168-48.128-19.456-13.312-13.312-21.504-32.768-22.528-51.2-1.024-19.456 3.072-39.936 14.336-57.344 11.264-13.312 26.624-22.528 43.008-27.648zM1976.32 429.056c17.408-3.072 34.816-1.024 51.2 5.12v33.792c-11.264-8.192-24.576-12.288-38.912-11.264-7.168 0-14.336 3.072-17.408 9.216-2.048 6.144-1.024 15.36 5.12 18.432 10.24 7.168 22.528 10.24 33.792 16.384 8.192 5.12 16.384 11.264 20.48 19.456 8.192 16.384 5.12 38.912-9.216 51.2-13.312 12.288-32.768 16.384-51.2 15.36-12.288-1.024-25.6-3.072-36.864-8.192V542.72c10.24 7.168 21.504 12.288 32.768 14.336 8.192 1.024 17.408 1.024 25.6-2.048 7.168-4.096 9.216-14.336 4.096-20.48-4.096-5.12-10.24-8.192-16.384-10.24-11.264-5.12-22.528-9.216-31.744-16.384-7.168-5.12-11.264-12.288-13.312-20.48-3.072-12.288-2.048-25.6 5.12-36.864 9.216-11.264 22.528-19.456 36.864-21.504zM1723.392 434.176c10.24-6.144 22.528-6.144 33.792-3.072v36.864c-7.168-5.12-16.384-7.168-24.576-6.144-10.24 1.024-18.432 9.216-22.528 18.432-5.12 9.216-5.12 20.48-5.12 31.744v72.704H1669.12V432.128h35.84v26.624c3.072-10.24 9.216-19.456 18.432-24.576zM1460.224 431.104h36.864V583.68h-36.864V431.104zM1909.76 466.944c-6.144-14.336-17.408-25.6-31.744-32.768-16.384-7.168-34.816-8.192-52.224-6.144-18.432 2.048-36.864 11.264-48.128 25.6-10.24 13.312-16.384 29.696-17.408 47.104-1.024 19.456 2.048 40.96 13.312 57.344 10.24 14.336 25.6 23.552 41.984 27.648 14.336 3.072 28.672 3.072 43.008 0 16.384-3.072 31.744-12.288 41.984-25.6 10.24-12.288 15.36-28.672 16.384-45.056 1.024-16.384-1.024-32.768-7.168-48.128z m-35.84 70.656c-3.072 8.192-10.24 14.336-18.432 17.408-9.216 4.096-20.48 4.096-29.696 1.024-10.24-3.072-18.432-10.24-22.528-18.432-6.144-12.288-7.168-25.6-5.12-37.888 1.024-11.264 5.12-23.552 14.336-31.744 6.144-6.144 15.36-9.216 24.576-9.216 11.264-1.024 22.528 2.048 30.72 10.24 8.192 8.192 11.264 20.48 12.288 31.744 0 12.288-1.024 24.576-6.144 36.864zM2202.624 472.064c-6.144-15.36-17.408-28.672-31.744-35.84-16.384-8.192-35.84-9.216-54.272-7.168-14.336 2.048-29.696 7.168-40.96 17.408-13.312 12.288-21.504 29.696-24.576 47.104-2.048 17.408-1.024 36.864 6.144 53.248s20.48 29.696 36.864 35.84c16.384 6.144 34.816 7.168 51.2 4.096 17.408-3.072 33.792-12.288 45.056-26.624 11.264-14.336 16.384-33.792 16.384-52.224 2.048-12.288 0-24.576-4.096-35.84z m-32.768 51.2c-1.024 8.192-4.096 16.384-9.216 22.528-5.12 6.144-13.312 10.24-21.504 11.264-9.216 1.024-18.432 1.024-26.624-3.072-9.216-4.096-15.36-11.264-19.456-20.48-4.096-10.24-5.12-22.528-4.096-33.792 1.024-11.264 4.096-22.528 11.264-30.72 6.144-8.192 16.384-12.288 26.624-13.312 10.24-1.024 21.504 2.048 29.696 8.192 7.168 6.144 11.264 15.36 13.312 24.576 1.024 13.312 1.024 24.576 0 34.816z" fill="#777777" p-id="37468"></path><path d="M733.184 486.4h168.96V655.36H733.184V486.4z" fill="#02A4EF" p-id="37469"></path><path d="M919.552 486.4h168.96V655.36H919.552V486.4z" fill="#FFB902" p-id="37470"></path></svg>