<?xml version="1.0" standalone="no"?><!DOCTYPE svg PUBLIC "-//W3C//DTD SVG 1.1//EN" "http://www.w3.org/Graphics/SVG/1.1/DTD/svg11.dtd"><svg t="1704097982206" class="icon" viewBox="0 0 1034 1024" version="1.1" xmlns="http://www.w3.org/2000/svg" p-id="3259" xmlns:xlink="http://www.w3.org/1999/xlink" width="129.25" height="128"><path d="M750.50762099 956.91605644c-10.78688935 0-21.57377872-2.78044013-33.263804-9.27489814l-181.64187949-98.3606001a34.58299043 34.58299043 0 0 0-17.95108886-4.63744863 51.75271406 51.75271406 0 0 0-17.98153155 3.71401787l-180.75904014 99.28403086a63.22963974 63.22963974 0 0 1-34.1567912 9.27489814c-21.58392656 0-42.26471719-10.19832891-56.65400069-26.90126366s-19.77765469-38.97689766-16.1854084-61.23056397l35.070075-207.8531086a42.44737325 42.44737325 0 0 0-11.69002529-35.25273105L89.63560479 479.98942403A75.81265312 75.81265312 0 0 1 70.75093731 402.04577656c8.99076533-27.83484229 31.45753213-47.31821719 59.34311279-51.96581367l201.40938808-30.61528242c12.59316036-1.85700938 24.28318565-10.20847676 29.67155596-21.30994073L451.09279883 108.83113261c12.5830125-25.97783291 37.75918623-41.70659941 65.63461904-41.70659941s53.05160654 15.76935615 65.64476601 41.74718995l89.90765772 189.29316357a39.50457188 39.50457188 0 0 0 29.68170381 21.3099416L903.37093261 350.09011074a75.44733925 75.44733925 0 0 1 59.3431128 51.03223506 77.39567754 77.39567754 0 0 1-17.98153155 77.99438496L799.96697949 625.66824131c-9.89390127 9.27489815-13.48614844 22.26381504-11.69002441 35.25273193l34.16693906 206.9195291c3.60239502 22.27396201-1.79612402 44.53777705-16.23614589 61.24071182a70.36339658 70.36339658 0 0 1-55.75086563 27.83484228z m-11.63928691-56.59311532q6.75829599 2.78044013 10.79703633 2.78044013a21.85791153 21.85791153 0 0 0 17.07839649-8.35146738 22.83207979 22.83207979 0 0 0 4.49538222-17.63651338l-34.16693906-206.90938213c-5.39851816-29.69185166 4.4953831-62.17429042 26.07930967-82.58109609l144.71479599-147.53582667c5.38837119-5.57102724 7.18449433-13.92249463 5.38837119-23.19739277-2.68911123-8.35146739-8.99076533-13.92249463-17.98153154-14.84592627l-201.40938808-30.61528154c-29.67155596-4.64759648-55.75086563-23.19739278-68.33387813-51.04238379L535.61208447 132.0691168c-3.59224717-8.35146739-10.78688935-12.05533828-18.8846666-12.05533828s-15.28227247 4.63744951-19.77765556 12.98891601l-89.90765684 187.3854167c-12.5830125 26.91141152-38.66232217 46.39478643-68.33387813 51.04238379L137.28869229 402.04577656a23.50182129 23.50182129 0 0 0-17.08854346 14.84592627v0.92343076q-4.05903604 12.532275 5.39851817 22.32470039l145.65852245 147.48508829c21.58392656 21.30994161 30.5746919 51.9556667 26.0793088 82.58109609l-34.16693907 206.90938213c-0.90313594 4.64759648-0.90313594 11.16235019 4.49538311 16.70293477a21.87820635 21.87820635 0 0 0 17.08854346 8.36161523 27.06362578 27.06362578 0 0 0 9.88375341-1.85700937l181.64188037-98.3606001c11.69002529-7.41788877 26.07930878-11.16235019 41.36158125-11.1623502a86.62998516 86.62998516 0 0 1 41.36158125 11.1623502z m0 0" p-id="3260" fill="#2c2c2c"></path><path d="M750.50762099 962c-11.98430508 0-23.63373984-3.23708115-35.59774922-9.88375342l-181.59114286-98.33015742a29.86436074 29.86436074 0 0 0-15.68817598-4.05903692 47.40954521 47.40954521 0 0 0-16.16511181 3.34870489l-180.23136592 99.05063642c-11.16235019 6.70755762-22.77119443 9.87360644-36.53132783 9.87360645-22.67986641 0-44.64940078-10.43172334-60.32742891-28.61620664-14.94740127-17.36252842-21.30994161-41.20936699-17.36252842-65.45196299l35.13096035-207.88355039a37.54608662 37.54608662 0 0 0-10.33024746-30.74720097L86.20571885 483.64255654a81.18072862 81.18072862 0 0 1-20.1328207-83.21024618c9.58947364-29.67155596 33.23336045-50.37264229 63.24993544-55.35510997l201.46012559-30.6457251c11.16235019-1.64390977 21.30994161-8.92987998 25.98798076-18.58023896l89.84677061-189.25257393c13.38467256-27.53041465 40.22505088-44.5479249 70.11985429-44.54792402s56.71488691 17.06824776 70.01837842 44.55807188l89.92795254 189.33375409a34.40033349 34.40033349 0 0 0 25.93724238 18.53964932l201.44997862 30.6254294a80.71393974 80.71393974 0 0 1 63.27023027 54.39108867 82.67242412 82.67242412 0 0 1-19.15865244 83.21024618L803.41716113 629.30107901c-8.35146739 7.83394013-11.94371455 18.77304375-10.25921514 30.91971005l34.1364964 206.77746357c3.92711748 24.25274297-2.4049793 48.1097294-17.35238057 65.46210997a75.45748711 75.45748711 0 0 1-59.43444083 29.5396374zM517.65084863 839.55916602a39.41324385 39.41324385 0 0 1 20.50828155 5.36807549l181.42878076 98.21853456c10.52305224 5.85516006 20.65034795 8.68633769 30.97044755 8.6863377a65.84771865 65.84771865 0 0 0 51.88463351-25.89665273c13.19186865-15.28227247 18.62082949-36.06453896 15.22138623-57.25270899l-34.23797227-206.90938125c-2.15128916-15.49537119 2.67896426-29.98613144 13.19186865-39.88003359l144.65391065-146.46018164a72.32188184 72.32188184 0 0 0 16.78411581-72.7176375 70.72870957 70.72870957 0 0 0-55.44643799-47.61249786L701.23091855 324.48773867c-14.51105508-2.14114131-26.38373643-10.64482295-33.28409882-23.95846318L577.94783487 111.06360283c-11.58854941-23.97875801-35.08022198-38.86527393-61.21027003-38.86527392s-49.61157276 14.92710645-61.25085966 38.94645497l-89.88736114 189.25257305c-6.08855449 12.5830125-19.18909512 22.04056758-33.4058704 24.1309714L130.8145291 355.12331592c-26.26196572 4.3533167-46.98334687 22.5175043-55.3956996 48.52578076a70.90121865 70.90121865 0 0 0 17.61621767 72.66689912l145.67881816 145.69911299a47.94736816 47.94736816 0 0 1 13.19186777 39.57560507l-35.11066464 208.02561681c-3.40959023 21.15772734 2.02951846 41.9501417 15.02858232 56.99901884 13.79057607 16.02304629 33.09129492 25.19646855 52.96027764 25.19646943 12.06548614 0 21.82746797-2.64852158 31.69092656-8.58486269l180.88081172-99.36521191a57.11064258 57.11064258 0 0 1 20.29518193-4.30257832z m231.9840791 68.61801093c-3.35885273 0-7.49906982-1.01475879-12.62360302-3.14575312l-0.48708458-0.22324747-179.81531367-98.36060009c-26.67801709-14.67341631-57.64846465-12.94832636-77.85231855-0.15221338l-181.92601319 98.52296133a31.71122227 31.71122227 0 0 1-12.17710897 2.43542197 26.86067315 26.86067315 0 0 1-20.86344757-10.1475914c-5.14482891-5.28689531-7.16419951-12.64389873-5.53043672-20.96492257l34.11620069-206.78761142c4.37361153-29.77303183-4.59685898-58.25731992-24.61805596-78.05527031L122.14848623 443.71178545c-7.4077418-7.64113623-9.76198271-16.83485332-6.86991885-26.67801621l0.30442764-1.91789473a28.51473076 28.51473076 0 0 1 20.64020009-18.03226992l201.75440538-30.68631475c27.98705654-4.38375937 52.76747373-22.86252246 64.61986025-48.22135312l89.93809952-187.46659776c5.44925654-10.14759141 14.20662744-15.82009453 24.20200458-15.82009453 10.72600401 0 19.28042315 5.48984707 23.33946006 15.0793207l89.82647578 188.17692891c11.62913906 25.73429062 35.79055401 43.73611787 64.66045078 48.26194278l201.39924024 30.60513456c10.45201904 1.07564502 18.52950146 7.75275997 21.92894385 18.26566436 2.31365039 11.80164815-0.0710332 21.66510674-6.58578691 28.41325489l-144.74523868 147.5459745c-20.21400176 19.11806191-29.85421289 49.72319648-24.69923701 78.02482764l34.18723476 207.01085801a28.27118848 28.27118848 0 0 1-5.56088027 21.73613995 26.88096885 26.88096885 0 0 1-20.87359453 10.16788622z m-8.73707607-12.47138964c4.68818701 1.8975999 7.33670859 2.31365039 8.7269291 2.31365126a17.08854346 17.08854346 0 0 0 13.30349151-6.52490156 17.74813711 17.74813711 0 0 0 3.44003379-13.36437685l-34.19738262-207.07174424c-5.75368418-31.61989336 5.0737957-65.86801347 27.60144785-87.1779542l144.62346796-147.38361328c4.05903604-4.22139815 5.53043672-10.83762685 4.05903692-18.59038682-2.02951846-6.13929287-6.78873867-10.0765582-13.6383627-10.78688935l-201.64278251-30.6457251c-32.14756846-5.0737957-59.08942266-25.1863207-72.047896-53.90400322L531.19788242 134.28129131c-3.30811435-7.66143105-9.68080166-9.23430761-14.46031758-9.23430762-6.38283516 0-11.8828292 3.68357519-15.47507637 10.38098496l-89.81632792 187.22305547c-13.19186865 28.29148418-40.83390615 48.92153643-72.04789688 53.78223252L138.00917128 407.06883477a18.52950146 18.52950146 0 0 0-12.91788368 10.87821738l-0.21309961 1.46125283c-2.11069864 6.52490068-0.77121651 11.9538624 4.20110332 17.0783956l145.63822676 147.51553184c22.32470039 22.07101026 32.36066807 53.78223252 27.47967626 86.96485547l-34.17708603 207.010858c-1.01475879 5.0737957 0 9.07194638 3.11531045 12.25829005a17.43356162 17.43356162 0 0 0 13.59777217 6.85977187 22.26381504 22.26381504 0 0 0 8.34131953-1.60332012l180.94169619-98.02572978c22.55809482-14.3588417 57.64846465-16.32747393 87.33016933 0z" p-id="3261" fill="#2c2c2c"></path></svg>