<?xml version="1.0" standalone="no"?><!DOCTYPE svg PUBLIC "-//W3C//DTD SVG 1.1//EN" "http://www.w3.org/Graphics/SVG/1.1/DTD/svg11.dtd"><svg t="1703738629310" class="icon" viewBox="0 0 1024 1024" version="1.1" xmlns="http://www.w3.org/2000/svg" p-id="18034" xmlns:xlink="http://www.w3.org/1999/xlink" width="200" height="200"><path d="M512 189.62963a37.925926 37.925926 0 0 0 37.925926-37.925926V75.851852a37.925926 37.925926 0 0 0-75.851852 0v75.851852a37.925926 37.925926 0 0 0 37.925926 37.925926zM230.4 284.444444A37.925926 37.925926 0 0 0 284.444444 230.4l-54.044444-53.665185a37.925926 37.925926 0 0 0-53.665185 53.665185zM189.62963 512a37.925926 37.925926 0 0 0-37.925926-37.925926H75.851852a37.925926 37.925926 0 0 0 0 75.851852h75.851852a37.925926 37.925926 0 0 0 37.925926-37.925926zM230.4 739.555556l-53.665185 54.044444a37.925926 37.925926 0 0 0 53.665185 53.665185L284.444444 793.6A37.925926 37.925926 0 0 0 230.4 739.555556zM512 834.37037a37.925926 37.925926 0 0 0-37.925926 37.925926v75.851852a37.925926 37.925926 0 0 0 75.851852 0v-75.851852a37.925926 37.925926 0 0 0-37.925926-37.925926zM793.6 739.555556A37.925926 37.925926 0 0 0 739.555556 793.6l53.665185 53.665185a37.925926 37.925926 0 0 0 53.665185-53.665185zM948.148148 474.074074h-75.851852a37.925926 37.925926 0 0 0 0 75.851852h75.851852a37.925926 37.925926 0 0 0 0-75.851852zM793.6 284.444444l53.665185-53.665185a37.925926 37.925926 0 0 0-53.665185-53.665185L739.555556 230.4A37.925926 37.925926 0 0 0 793.6 284.444444z" fill="#2c2c2c" p-id="18035"></path><path d="M512 227.555556a284.444444 284.444444 0 1 0 284.444444 284.444444 284.444444 284.444444 0 0 0-284.444444-284.444444z m0 493.037037a208.592593 208.592593 0 1 1 208.592593-208.592593 208.592593 208.592593 0 0 1-208.592593 208.592593z" fill="#2c2c2c" p-id="18036"></path></svg>