<?xml version="1.0" standalone="no"?><!DOCTYPE svg PUBLIC "-//W3C//DTD SVG 1.1//EN" "http://www.w3.org/Graphics/SVG/1.1/DTD/svg11.dtd"><svg t="1704117210785" class="icon" viewBox="0 0 1024 1024" version="1.1" xmlns="http://www.w3.org/2000/svg" p-id="13668" xmlns:xlink="http://www.w3.org/1999/xlink" width="128" height="128"><path d="M891.4432 350.7712l-254.958933 254.976a23.3984 23.3984 0 0 0-6.536534 12.578133l-11.6736 66.816A23.5008 23.5008 0 0 0 648.277333 711.68l63.778134-19.421867a23.569067 23.569067 0 0 0 9.7792-5.870933l252.586666-252.586667a23.517867 23.517867 0 0 0 0-33.245866l-49.8176-49.8176a23.5008 23.5008 0 0 0-33.160533 0.034133zM241.373867 749.226667a19.387733 19.387733 0 0 1-9.591467-2.525867 19.592533 19.592533 0 0 1-7.441067-26.692267c83.831467-148.565333 116.241067-143.479467 127.095467-141.653333 7.901867 1.211733 21.828267 6.826667 26.589867 29.969067 4.096 19.950933 5.256533 40.072533 6.1952 56.234666 0.2048 3.515733 0.443733 7.458133 0.699733 11.281067l14.148267-15.479467c29.1328-32.221867 46.882133-51.575467 69.137066-46.336 19.165867 4.471467 25.019733 25.275733 26.948267 32.068267a80.213333 80.213333 0 0 1 2.184533 31.1296c2.9184-1.262933 6.229333-2.747733 10.001067-4.471467a19.575467 19.575467 0 1 1 16.2304 35.515734c-31.163733 14.1824-48.042667 21.1456-61.354667 10.24-11.758933-9.642667-8.413867-23.790933-6.212266-33.194667 2.048-8.533333 4.334933-18.3808 1.450666-28.637867a4.573867 4.573867 0 0 0-0.119466-0.4608c-7.714133 6.587733-19.370667 19.473067-29.218134 30.3616l-15.752533 17.2544c-8.362667 9.0112-25.6 27.835733-45.038933 20.753067s-20.48-28.245333-22.186667-57.8048a397.9264 397.9264 0 0 0-4.369067-44.817067c-18.039467 15.786667-52.48 64.426667-82.312533 117.333334a19.6608 19.6608 0 0 1-17.066667 9.949866zM202.24 298.888533h430.677333v39.150934H202.24zM202.24 377.207467h430.677333v39.150933H202.24zM202.24 455.509333h352.375467v39.150934H202.24V455.509333z" p-id="13669" fill="#2c2c2c"></path><path d="M638.7712 970.922667H203.093333c-88.439467 0-160.426667-68.113067-160.426666-151.893334V212.667733c0-83.626667 71.953067-151.893333 160.426666-151.893333h435.677867c88.439467 0 160.426667 68.113067 160.426667 151.893333v165.717334a30.72 30.72 0 1 1-61.44 0v-165.717334c0-49.834667-44.373333-90.453333-98.986667-90.453333H203.093333c-54.613333 0-98.986667 40.5504-98.986666 90.453333v606.4128c0 49.851733 44.373333 90.453333 98.986666 90.453334h435.677867c54.613333 0 98.986667-40.5504 98.986667-90.453334v-50.875733a30.72 30.72 0 0 1 61.44 0v50.875733c-0.034133 83.746133-71.9872 151.842133-160.426667 151.842134z" p-id="13670" fill="#2c2c2c"></path></svg>