<?xml version="1.0" standalone="no"?><!DOCTYPE svg PUBLIC "-//W3C//DTD SVG 1.1//EN" "http://www.w3.org/Graphics/SVG/1.1/DTD/svg11.dtd"><svg t="1704117190670" class="icon" viewBox="0 0 1024 1024" version="1.1" xmlns="http://www.w3.org/2000/svg" p-id="13466" xmlns:xlink="http://www.w3.org/1999/xlink" width="128" height="128"><path d="M789.05299 959.967638 236.143255 959.967638c-70.708412 0-78.381162-26.095331-78.990029-77.841879L157.153226 142.616138c0-42.98807 16.025998-78.45484 78.990029-77.843926 0 0 453.222315 0 327.153038 0l55.216579 0 243.744373 258.693854 5.785773 4.600785 0 9.15859 0 8.66638 0 49.718355 0 486.517629C868.043019 940.210665 846.311065 959.967638 789.05299 959.967638zM631.082142 162.357761l0 142.81773c0 21.4925 4.51585 22.89136 26.327622 22.89136l131.647319 0L631.082142 162.357761zM815.383682 380.723118 631.079072 380.723118c-43.62252 0-52.65729-35.996842-52.65729-78.986959L578.421782 117.431549 236.140185 117.431549c-21.813818 0-26.329668 4.835122-26.329668 26.329668l0 737.219461c0 21.49557 4.51585 26.327622 26.329668 26.327622l552.914852 0c21.810748 0 26.327622-4.832052 26.327622-26.327622L815.382659 380.723118zM288.797475 696.674023l447.598224 0 0 52.66036L288.797475 749.334383 288.797475 696.674023zM288.797475 591.356372l447.598224 0 0 52.66036L288.797475 644.016733 288.797475 591.356372zM288.797475 459.712123l210.634278 0L499.431753 512.369414 288.797475 512.369414 288.797475 459.712123zM288.797475 354.395496l210.634278 0 0 52.65729L288.797475 407.052786 288.797475 354.395496z" fill="#2c2c2c" p-id="13467"></path></svg>